<?xml version="1.0" encoding="UTF-8"?>
<svg width="512" height="512" viewBox="0 0 512 512" xmlns="http://www.w3.org/2000/svg">
  <!-- 背景圆形 -->
  <circle cx="256" cy="256" r="240" fill="#1e293b" stroke="#334155" stroke-width="8"/>
  
  <!-- 外层装饰环 -->
  <circle cx="256" cy="256" r="200" fill="none" stroke="#3b82f6" stroke-width="3" opacity="0.7" stroke-dasharray="15,10"/>
  
  <!-- 中层环 -->
  <circle cx="256" cy="256" r="160" fill="none" stroke="#06b6d4" stroke-width="2" opacity="0.5" stroke-dasharray="10,8"/>
  
  <!-- 核心圆形 -->
  <circle cx="256" cy="256" r="80" fill="#00f5ff" opacity="0.9"/>
  
  <!-- 内环 -->
  <circle cx="256" cy="256" r="60" fill="none" stroke="#00f5ff" stroke-width="3" opacity="0.8"/>
  <circle cx="256" cy="256" r="40" fill="none" stroke="#00f5ff" stroke-width="2" opacity="0.6"/>
  
  <!-- 中心点 -->
  <circle cx="256" cy="256" r="10" fill="#ffffff"/>
  
  <!-- 连接线 -->
  <line x1="256" y1="176" x2="256" y2="100" stroke="#3b82f6" stroke-width="4" opacity="0.8" stroke-linecap="round"/>
  <line x1="256" y1="336" x2="256" y2="412" stroke="#3b82f6" stroke-width="4" opacity="0.8" stroke-linecap="round"/>
  <line x1="176" y1="256" x2="100" y2="256" stroke="#3b82f6" stroke-width="4" opacity="0.8" stroke-linecap="round"/>
  <line x1="336" y1="256" x2="412" y2="256" stroke="#3b82f6" stroke-width="4" opacity="0.8" stroke-linecap="round"/>
  
  <!-- 端点 -->
  <circle cx="256" cy="100" r="8" fill="#3b82f6"/>
  <circle cx="256" cy="412" r="8" fill="#3b82f6"/>
  <circle cx="100" cy="256" r="8" fill="#3b82f6"/>
  <circle cx="412" cy="256" r="8" fill="#3b82f6"/>
  
  <!-- 对角连接 -->
  <line x1="200" y1="200" x2="150" y2="150" stroke="#06b6d4" stroke-width="3" opacity="0.6" stroke-linecap="round"/>
  <line x1="312" y1="200" x2="362" y2="150" stroke="#06b6d4" stroke-width="3" opacity="0.6" stroke-linecap="round"/>
  <line x1="200" y1="312" x2="150" y2="362" stroke="#06b6d4" stroke-width="3" opacity="0.6" stroke-linecap="round"/>
  <line x1="312" y1="312" x2="362" y2="362" stroke="#06b6d4" stroke-width="3" opacity="0.6" stroke-linecap="round"/>
  
  <!-- 对角端点 -->
  <circle cx="150" cy="150" r="5" fill="#06b6d4" opacity="0.8"/>
  <circle cx="362" cy="150" r="5" fill="#06b6d4" opacity="0.8"/>
  <circle cx="150" cy="362" r="5" fill="#06b6d4" opacity="0.8"/>
  <circle cx="362" cy="362" r="5" fill="#06b6d4" opacity="0.8"/>
  
  <!-- 数据点 -->
  <circle cx="280" cy="130" r="3" fill="#00f5ff" opacity="0.9"/>
  <circle cx="232" cy="130" r="3" fill="#00f5ff" opacity="0.9"/>
  <circle cx="382" cy="280" r="3" fill="#00f5ff" opacity="0.9"/>
  <circle cx="382" cy="232" r="3" fill="#00f5ff" opacity="0.9"/>
  <circle cx="232" cy="382" r="3" fill="#00f5ff" opacity="0.9"/>
  <circle cx="280" cy="382" r="3" fill="#00f5ff" opacity="0.9"/>
  <circle cx="130" cy="232" r="3" fill="#00f5ff" opacity="0.9"/>
  <circle cx="130" cy="280" r="3" fill="#00f5ff" opacity="0.9"/>
</svg>
